<?xml version="1.0" encoding="UTF-8"?>
<svg xmlns="http://www.w3.org/2000/svg" width="1200" height="675" viewBox="0 0 1200 675">
  <defs>
    <linearGradient id="bg" x1="0" y1="0" x2="1" y2="1">
      <stop offset="0%" stop-color="#111113"/>
      <stop offset="100%" stop-color="#0A0A0A"/>
    </linearGradient>
    <linearGradient id="topline" x1="0" y1="0" x2="1" y2="0">
      <stop offset="0%" stop-color="#007BFF"/>
      <stop offset="60%" stop-color="#FF1430"/>
      <stop offset="100%" stop-color="#3A9BFF"/>
    </linearGradient>
  </defs>
  <rect width="1200" height="675" fill="url(#bg)"/>
  <rect x="0" y="0" width="1200" height="4" fill="url(#topline)"/>
  
  <text x="56" y="54" fill="#3A9BFF" font-family="Segoe UI, system-ui, -apple-system, sans-serif" font-size="13" font-weight="700" letter-spacing="2">GETKINETIK</text>
  <text x="56" y="90" fill="#E6E8EC" font-family="Segoe UI, system-ui, -apple-system, sans-serif" font-size="42" font-weight="700">Daily Signal Brief</text>
  <text x="56" y="114" fill="#9AA0A8" font-family="Segoe UI, system-ui, -apple-system, sans-serif" font-size="14">What changed across DePIN networks today</text>
  <text x="56" y="136" fill="#9AA0A8" font-family="Segoe UI, system-ui, -apple-system, sans-serif" font-size="15">Sat, Jun 20, 2026</text>
  <text x="1144" y="88" fill="#E6E8EC" font-family="Segoe UI, system-ui, -apple-system, sans-serif" font-size="38" font-weight="700" text-anchor="end">7</text>
  <text x="1144" y="118" fill="#9AA0A8" font-family="Segoe UI, system-ui, -apple-system, sans-serif" font-size="13" text-anchor="end">5 networks tracked</text>

  <path d="M 64 148 L 1136 148 L 1144 156 L 1144 232 L 1136 240 L 64 240 L 56 232 L 56 156 Z" fill="#111113" stroke="rgba(230, 232, 236, 0.10)"/>
  <text x="72" y="168" fill="#9AA0A8" font-family="Segoe UI, system-ui, -apple-system, sans-serif" font-size="12" font-weight="700">Today's read</text>
  <polygon points="72,172 80,178 72,184 64,178" fill="#3A9BFF"/><text x="94" y="183" fill="#E6E8EC" font-family="Segoe UI, system-ui, -apple-system, sans-serif" font-size="14">WeatherXM over-capacity cells rose from 286 to 287.</text><polygon points="72,200 80,206 72,212 64,206" fill="#E8FF3B"/><text x="94" y="211" fill="#E6E8EC" font-family="Segoe UI, system-ui, -apple-system, sans-serif" font-size="14">Geodnet duplicate-coordinate groups unchanged at 10.</text>

  <path d="M 68 264 L 800 264 L 812 276 L 812 462 L 800 474 L 68 474 L 56 462 L 56 276 Z" fill="#111113" stroke="rgba(230, 232, 236, 0.10)"/>
  <text x="72" y="288" fill="#9AA0A8" font-family="Segoe UI, system-ui, -apple-system, sans-serif" font-size="12" font-weight="700">Today's movers</text>
  
      <path d="M 84 304 L 300 304 L 310 314 L 310 432 L 300 442 L 84 442 L 74 432 L 74 314 Z" fill="#111113" stroke="rgba(230, 232, 236, 0.10)"/>
      <path d="M 75 305 L 290 305 L 299 314 L 84 314 Z" fill="#007BFF"/>
      
    <text x="88" y="330" fill="#E6E8EC" font-family="Segoe UI, system-ui, -apple-system, sans-serif" font-size="17" font-weight="700">Geodnet</text>
    <text x="296" y="330" fill="#007BFF" font-family="Segoe UI, system-ui, -apple-system, sans-serif" font-size="10" font-weight="600" text-anchor="end">Registry</text>
    
    <text x="86" y="352" fill="#9AA0A8" font-family="Segoe UI, system-ui, -apple-system, sans-serif" font-size="10">Duplicate groups vs fleet</text>
    <rect x="86" y="360" width="212" height="10" fill="#0A0A0A" stroke="rgba(230, 232, 236, 0.10)"/>
    <rect x="86" y="360" width="6" height="10" fill="#FF1430"/>
    <text x="86" y="386" fill="#E6E8EC" font-family="system-ui,sans-serif" font-size="18" font-weight="700">10</text>
    <text x="298" y="386" fill="#6A6C72" font-family="system-ui,sans-serif" font-size="10" font-weight="700" text-anchor="end">unchanged</text>
    <text x="86" y="402" fill="#9AA0A8" font-family="Segoe UI, system-ui, -apple-system, sans-serif" font-size="10">Fleet 19,589</text>
    <text x="298" y="402" fill="#FF1430" font-family="system-ui,sans-serif" font-size="10" text-anchor="end">−10</text>
    
      <path d="M 336 304 L 552 304 L 562 314 L 562 432 L 552 442 L 336 442 L 326 432 L 326 314 Z" fill="#111113" stroke="rgba(230, 232, 236, 0.10)"/>
      <path d="M 327 305 L 542 305 L 551 314 L 336 314 Z" fill="#007BFF"/>
      
    <text x="340" y="330" fill="#E6E8EC" font-family="Segoe UI, system-ui, -apple-system, sans-serif" font-size="17" font-weight="700">Helium Mobile</text>
    <text x="548" y="330" fill="#007BFF" font-family="Segoe UI, system-ui, -apple-system, sans-serif" font-size="10" font-weight="600" text-anchor="end">Metrics</text>
    
    <text x="340" y="358" fill="#6A6C72" font-family="system-ui,sans-serif" font-size="10">observed entities</text>
    <text x="340" y="380" fill="#E6E8EC" font-family="system-ui,sans-serif" font-size="17" font-weight="700">54,714</text>
    <text x="548" y="380" fill="#E8FF3B" font-family="system-ui,sans-serif" font-size="10" font-weight="700" text-anchor="end">+6</text>
    <text x="340" y="400" fill="#6A6C72" font-family="system-ui,sans-serif" font-size="10">stacked spots</text>
    <text x="340" y="416" fill="#E6E8EC" font-family="system-ui,sans-serif" font-size="13" font-weight="700">530</text>
    <text x="548" y="416" fill="#6A6C72" font-family="system-ui,sans-serif" font-size="10" font-weight="700" text-anchor="end">unchanged</text>
    
      <path d="M 588 304 L 804 304 L 814 314 L 814 432 L 804 442 L 588 442 L 578 432 L 578 314 Z" fill="#111113" stroke="rgba(230, 232, 236, 0.10)"/>
      <path d="M 579 305 L 794 305 L 803 314 L 588 314 Z" fill="#E8FF3B"/>
      
    <text x="592" y="330" fill="#E6E8EC" font-family="Segoe UI, system-ui, -apple-system, sans-serif" font-size="17" font-weight="700">WeatherXM</text>
    <text x="800" y="330" fill="#E8FF3B" font-family="Segoe UI, system-ui, -apple-system, sans-serif" font-size="10" font-weight="600" text-anchor="end">Capacity</text>
    
    <rect x="590" y="358" width="14" height="14" fill="#E8FF3B" stroke="rgba(230, 232, 236, 0.10)"/><rect x="606" y="358" width="14" height="14" fill="#E8FF3B" stroke="rgba(230, 232, 236, 0.10)"/><rect x="622" y="358" width="14" height="14" fill="#E8FF3B" stroke="rgba(230, 232, 236, 0.10)"/><rect x="638" y="358" width="14" height="14" fill="#E8FF3B" stroke="rgba(230, 232, 236, 0.10)"/><rect x="654" y="358" width="14" height="14" fill="#1A1A1D" stroke="rgba(230, 232, 236, 0.10)"/><rect x="670" y="358" width="14" height="14" fill="#1A1A1D" stroke="rgba(230, 232, 236, 0.10)"/><rect x="686" y="358" width="14" height="14" fill="#1A1A1D" stroke="rgba(230, 232, 236, 0.10)"/><rect x="702" y="358" width="14" height="14" fill="#1A1A1D" stroke="rgba(230, 232, 236, 0.10)"/><rect x="718" y="358" width="14" height="14" fill="#1A1A1D" stroke="rgba(230, 232, 236, 0.10)"/><rect x="734" y="358" width="14" height="14" fill="#1A1A1D" stroke="rgba(230, 232, 236, 0.10)"/><rect x="590" y="374" width="14" height="14" fill="#1A1A1D" stroke="rgba(230, 232, 236, 0.10)"/><rect x="606" y="374" width="14" height="14" fill="#1A1A1D" stroke="rgba(230, 232, 236, 0.10)"/><rect x="622" y="374" width="14" height="14" fill="#1A1A1D" stroke="rgba(230, 232, 236, 0.10)"/><rect x="638" y="374" width="14" height="14" fill="#1A1A1D" stroke="rgba(230, 232, 236, 0.10)"/><rect x="654" y="374" width="14" height="14" fill="#1A1A1D" stroke="rgba(230, 232, 236, 0.10)"/><rect x="670" y="374" width="14" height="14" fill="#1A1A1D" stroke="rgba(230, 232, 236, 0.10)"/><rect x="686" y="374" width="14" height="14" fill="#1A1A1D" stroke="rgba(230, 232, 236, 0.10)"/><rect x="702" y="374" width="14" height="14" fill="#1A1A1D" stroke="rgba(230, 232, 236, 0.10)"/><rect x="718" y="374" width="14" height="14" fill="#1A1A1D" stroke="rgba(230, 232, 236, 0.10)"/><rect x="734" y="374" width="14" height="14" fill="#1A1A1D" stroke="rgba(230, 232, 236, 0.10)"/><rect x="590" y="390" width="14" height="14" fill="#1A1A1D" stroke="rgba(230, 232, 236, 0.10)"/><rect x="606" y="390" width="14" height="14" fill="#1A1A1D" stroke="rgba(230, 232, 236, 0.10)"/><rect x="622" y="390" width="14" height="14" fill="#1A1A1D" stroke="rgba(230, 232, 236, 0.10)"/><rect x="638" y="390" width="14" height="14" fill="#1A1A1D" stroke="rgba(230, 232, 236, 0.10)"/><rect x="654" y="390" width="14" height="14" fill="#1A1A1D" stroke="rgba(230, 232, 236, 0.10)"/><rect x="670" y="390" width="14" height="14" fill="#1A1A1D" stroke="rgba(230, 232, 236, 0.10)"/><rect x="686" y="390" width="14" height="14" fill="#1A1A1D" stroke="rgba(230, 232, 236, 0.10)"/><rect x="702" y="390" width="14" height="14" fill="#1A1A1D" stroke="rgba(230, 232, 236, 0.10)"/><rect x="718" y="390" width="14" height="14" fill="#1A1A1D" stroke="rgba(230, 232, 236, 0.10)"/><rect x="734" y="390" width="14" height="14" fill="#1A1A1D" stroke="rgba(230, 232, 236, 0.10)"/><rect x="590" y="406" width="14" height="14" fill="#1A1A1D" stroke="rgba(230, 232, 236, 0.10)"/><rect x="606" y="406" width="14" height="14" fill="#1A1A1D" stroke="rgba(230, 232, 236, 0.10)"/><rect x="622" y="406" width="14" height="14" fill="#1A1A1D" stroke="rgba(230, 232, 236, 0.10)"/><rect x="638" y="406" width="14" height="14" fill="#1A1A1D" stroke="rgba(230, 232, 236, 0.10)"/><rect x="654" y="406" width="14" height="14" fill="#1A1A1D" stroke="rgba(230, 232, 236, 0.10)"/><rect x="670" y="406" width="14" height="14" fill="#1A1A1D" stroke="rgba(230, 232, 236, 0.10)"/><rect x="686" y="406" width="14" height="14" fill="#1A1A1D" stroke="rgba(230, 232, 236, 0.10)"/><rect x="702" y="406" width="14" height="14" fill="#1A1A1D" stroke="rgba(230, 232, 236, 0.10)"/><rect x="718" y="406" width="14" height="14" fill="#1A1A1D" stroke="rgba(230, 232, 236, 0.10)"/><rect x="734" y="406" width="14" height="14" fill="#1A1A1D" stroke="rgba(230, 232, 236, 0.10)"/>
    <text x="590" y="424" fill="#E6E8EC" font-family="system-ui,sans-serif" font-size="16" font-weight="700">287 hot cells</text>
    <text x="802" y="424" fill="#E8FF3B" font-family="system-ui,sans-serif" font-size="10" font-weight="700" text-anchor="end">+1</text>
    <text x="590" y="438" fill="#9AA0A8" font-family="Segoe UI, system-ui, -apple-system, sans-serif" font-size="10">Capacity stress</text>
    
  <text x="434" y="464" fill="#6A6C72" font-family="Segoe UI, system-ui, -apple-system, sans-serif" font-size="11" text-anchor="middle">2 other networks unchanged today</text>

  <path d="M 848 264 L 1132 264 L 1144 276 L 1144 474 L 1132 486 L 848 486 L 836 474 L 836 276 Z" fill="#111113" stroke="rgba(230, 232, 236, 0.10)"/>
  <text x="852" y="288" fill="#9AA0A8" font-family="Segoe UI, system-ui, -apple-system, sans-serif" font-size="12" font-weight="700">Signal mix</text>
  <rect x="854" y="324" width="272" height="26" fill="#0A0A0A" stroke="rgba(230, 232, 236, 0.10)"/>
  <rect x="854" y="312" width="155" height="26" fill="#007BFF" stroke="#1A1A1D"/><rect x="1009" y="312" width="39" height="26" fill="#FF1430" /><rect x="1048" y="312" width="39" height="26" fill="#E8FF3B" /><rect x="1087" y="312" width="39" height="26" fill="#7FA8FF" />
  
      <rect x="854" y="350" width="10" height="10" fill="#007BFF"/>
      <text x="872" y="360" fill="#9AA0A8" font-family="Segoe UI, system-ui, -apple-system, sans-serif" font-size="12">Infrastructure</text>
      <text x="1128" y="360" fill="#E6E8EC" font-family="system-ui,sans-serif" font-size="12" font-weight="700" text-anchor="end">4</text>
    
      <rect x="854" y="376" width="10" height="10" fill="#FF1430"/>
      <text x="872" y="386" fill="#9AA0A8" font-family="Segoe UI, system-ui, -apple-system, sans-serif" font-size="12">Identity</text>
      <text x="1128" y="386" fill="#E6E8EC" font-family="system-ui,sans-serif" font-size="12" font-weight="700" text-anchor="end">1</text>
    
      <rect x="854" y="402" width="10" height="10" fill="#E8FF3B"/>
      <text x="872" y="412" fill="#9AA0A8" font-family="Segoe UI, system-ui, -apple-system, sans-serif" font-size="12">Capacity</text>
      <text x="1128" y="412" fill="#E6E8EC" font-family="system-ui,sans-serif" font-size="12" font-weight="700" text-anchor="end">1</text>
    
      <rect x="854" y="428" width="10" height="10" fill="#7FA8FF"/>
      <text x="872" y="438" fill="#9AA0A8" font-family="Segoe UI, system-ui, -apple-system, sans-serif" font-size="12">Economics</text>
      <text x="1128" y="438" fill="#E6E8EC" font-family="system-ui,sans-serif" font-size="12" font-weight="700" text-anchor="end">1</text>
    
  <text x="852" y="480" fill="#9AA0A8" font-family="Segoe UI, system-ui, -apple-system, sans-serif" font-size="12" font-weight="700">Movement today</text>
  
      <rect x="854" y="498" width="82" height="22" fill="#0A0A0A" stroke="rgba(230, 232, 236, 0.10)"/>
      <rect x="857" y="510" width="76" height="10" fill="#E8FF3B"/>
      <text x="895" y="534" fill="#6A6C72" font-family="system-ui,sans-serif" font-size="10" text-anchor="middle">up</text>
      <text x="895" y="506" fill="#E8FF3B" font-family="system-ui,sans-serif" font-size="12" font-weight="700" text-anchor="middle">3</text>
      <rect x="944" y="498" width="82" height="22" fill="#0A0A0A" stroke="rgba(230, 232, 236, 0.10)"/>
      <rect x="947" y="512" width="76" height="8" fill="#FF1430"/>
      <text x="985" y="534" fill="#6A6C72" font-family="system-ui,sans-serif" font-size="10" text-anchor="middle">down</text>
      <text x="985" y="508" fill="#FF1430" font-family="system-ui,sans-serif" font-size="12" font-weight="700" text-anchor="middle">1</text>
      <rect x="1034" y="498" width="82" height="22" fill="#0A0A0A" stroke="rgba(230, 232, 236, 0.10)"/>
      <rect x="1037" y="510" width="76" height="10" fill="#6A6C72"/>
      <text x="1075" y="534" fill="#6A6C72" font-family="system-ui,sans-serif" font-size="10" text-anchor="middle">flat</text>
      <text x="1075" y="506" fill="#6A6C72" font-family="system-ui,sans-serif" font-size="12" font-weight="700" text-anchor="middle">3</text>

  <path d="M 68 492 L 1132 492 L 1144 504 L 1144 588 L 1132 600 L 68 600 L 56 588 L 56 504 Z" fill="#111113" stroke="rgba(230, 232, 236, 0.10)"/>
  <text x="72" y="528" fill="#E8FF3B" font-family="Segoe UI, system-ui, -apple-system, sans-serif" font-size="28" font-weight="700">↑ 3</text>
  <text x="158" y="528" fill="#FF1430" font-family="Segoe UI, system-ui, -apple-system, sans-serif" font-size="28" font-weight="700">↓ 1</text>
  <text x="244" y="528" fill="#9AA0A8" font-family="Segoe UI, system-ui, -apple-system, sans-serif" font-size="28" font-weight="700">— 3</text>
  <text x="72" y="546" fill="#9AA0A8" font-family="Segoe UI, system-ui, -apple-system, sans-serif" font-size="11">metrics up · down · unchanged</text>
  <text x="380" y="516" fill="#9AA0A8" font-family="Segoe UI, system-ui, -apple-system, sans-serif" font-size="12" font-weight="600">Why it matters</text>
  <text x="380" y="532" fill="#E6E8EC" font-family="Segoe UI, system-ui, -apple-system, sans-serif" font-size="12">Today's signals show modest movement in registry, capacity, and</text>
  <text x="380" y="550" fill="#9AA0A8" font-family="Segoe UI, system-ui, -apple-system, sans-serif" font-size="12">The observed changes are incremental rather than structural and remain</text><text x="380" y="564" fill="#9AA0A8" font-family="Segoe UI, system-ui, -apple-system, sans-serif" font-size="12">reproducible from public data sources.</text>
  <text x="380" y="580" fill="#9AA0A8" font-family="Segoe UI, system-ui, -apple-system, sans-serif" font-size="11">Observations span 5 networks — no single network dominates the index.</text>
  <text x="1128" y="586" fill="#E6E8EC" font-family="Segoe UI, system-ui, -apple-system, sans-serif" font-size="18" font-weight="700" text-anchor="end">getkinetik.app/site</text>
</svg>