<?xml version="1.0" encoding="UTF-8"?>
<svg xmlns="http://www.w3.org/2000/svg" width="1200" height="675" viewBox="0 0 1200 675">
  <defs>
    <linearGradient id="bg" x1="0" y1="0" x2="1" y2="1">
      <stop offset="0%" stop-color="#111113"/>
      <stop offset="100%" stop-color="#0A0A0A"/>
    </linearGradient>
    <linearGradient id="topline" x1="0" y1="0" x2="1" y2="0">
      <stop offset="0%" stop-color="#E8FF3B"/>
      <stop offset="60%" stop-color="#007BFF"/>
      <stop offset="100%" stop-color="#FF1430"/>
    </linearGradient>
  </defs>
  <rect width="1200" height="675" fill="url(#bg)"/>
  <rect x="0" y="0" width="1200" height="6" fill="#E8FF3B"/>
  
  <defs>
    <linearGradient id="monthBand" x1="0" y1="0" x2="1" y2="1">
      <stop offset="0%" stop-color="#2A2400"/>
      <stop offset="50%" stop-color="#1A1608"/>
      <stop offset="100%" stop-color="#0A0A0A"/>
    </linearGradient>
  </defs>
  <rect x="0" y="0" width="1200" height="132" fill="url(#monthBand)"/>
  <text x="600" y="52" fill="#E8FF3B" font-family="Segoe UI, system-ui, -apple-system, sans-serif" font-size="13" font-weight="700" letter-spacing="4" text-anchor="middle">GETKINETIK</text>
  <text x="600" y="92" fill="#E6E8EC" font-family="Segoe UI, system-ui, -apple-system, sans-serif" font-size="36" font-weight="700" text-anchor="middle">DePIN Ecosystem State</text>
  <text x="600" y="118" fill="#9AA0A8" font-family="Segoe UI, system-ui, -apple-system, sans-serif" font-size="16" text-anchor="middle">July 2026</text>

  <text x="88" y="168" fill="#9AA0A8" font-family="Segoe UI, system-ui, -apple-system, sans-serif" font-size="13">8 signals · 6 active networks · public audit composition</text>

  <path d="M 82 196 L 590 196 L 600 206 L 600 382 L 590 392 L 82 392 L 72 382 L 72 206 Z" fill="#111113" stroke="rgba(230, 232, 236, 0.10)"/>
  <text x="88" y="220" fill="#9AA0A8" font-family="Segoe UI, system-ui, -apple-system, sans-serif" font-size="12" font-weight="700">Ecosystem composition</text>
  
    <rect x="88" y="318" width="480" height="22" fill="#0A0A0A" stroke="rgba(230, 232, 236, 0.10)"/>
    <rect x="88" y="318" width="300" height="22" fill="#FF1430"/><rect x="388" y="318" width="120" height="22" fill="#007BFF"/><rect x="508" y="318" width="60" height="22" fill="#7FA8FF"/>
    <text x="88" y="358" fill="#9AA0A8" font-family="Segoe UI, system-ui, -apple-system, sans-serif" font-size="11">8 signals across 3 sectors</text>
  
      <rect x="88" y="368" width="10" height="10" fill="#FF1430"/>
      <text x="106" y="378" fill="#9AA0A8" font-family="Segoe UI, system-ui, -apple-system, sans-serif" font-size="11">Registry &amp; identity integrity</text>
      <text x="540" y="378" fill="#E6E8EC" font-family="Segoe UI, system-ui, -apple-system, sans-serif" font-size="11" font-weight="700" text-anchor="end">5</text>
      <rect x="88" y="392" width="10" height="10" fill="#007BFF"/>
      <text x="106" y="402" fill="#9AA0A8" font-family="Segoe UI, system-ui, -apple-system, sans-serif" font-size="11">Network health &amp; capacity</text>
      <text x="540" y="402" fill="#E6E8EC" font-family="Segoe UI, system-ui, -apple-system, sans-serif" font-size="11" font-weight="700" text-anchor="end">2</text>
      <rect x="88" y="416" width="10" height="10" fill="#7FA8FF"/>
      <text x="106" y="426" fill="#9AA0A8" font-family="Segoe UI, system-ui, -apple-system, sans-serif" font-size="11">Token economics</text>
      <text x="540" y="426" fill="#E6E8EC" font-family="Segoe UI, system-ui, -apple-system, sans-serif" font-size="11" font-weight="700" text-anchor="end">1</text>

  <path d="M 634 196 L 1118 196 L 1128 206 L 1128 382 L 1118 392 L 634 392 L 624 382 L 624 206 Z" fill="#111113" stroke="rgba(230, 232, 236, 0.10)"/>
  <text x="640" y="220" fill="#9AA0A8" font-family="Segoe UI, system-ui, -apple-system, sans-serif" font-size="12" font-weight="700">Signal category distribution</text>
  <circle cx="876" cy="292" r="62" fill="#0A0A0A" stroke="rgba(230, 232, 236, 0.10)"/><path d="M 876 292 L 876 230 A 62 62 0 0 1 912.4426856421334 342.1590536512467 Z" fill="#007BFF" opacity="0.92"/><path d="M 876 292 L 912.4426856421334 342.1590536512467 A 62 62 0 0 1 839.5573143578666 342.1590536512467 Z" fill="#FF1430" opacity="0.92"/><path d="M 876 292 L 839.5573143578666 342.1590536512467 A 62 62 0 0 1 817.0344959897004 272.8409463487533 Z" fill="#E8FF3B" opacity="0.92"/><path d="M 876 292 L 817.0344959897004 272.8409463487533 A 62 62 0 0 1 876 230 Z" fill="#7FA8FF" opacity="0.92"/><circle cx="876" cy="292" r="32" fill="#111113"/><text x="876" y="288" fill="#E6E8EC" font-family="Segoe UI, system-ui, -apple-system, sans-serif" font-size="20" font-weight="700" text-anchor="middle">5</text><text x="876" y="306" fill="#9AA0A8" font-family="Segoe UI, system-ui, -apple-system, sans-serif" font-size="10" text-anchor="middle">signals</text>
      <rect x="814" y="372" width="10" height="10" fill="#007BFF"/>
      <text x="830" y="382" fill="#9AA0A8" font-family="Segoe UI, system-ui, -apple-system, sans-serif" font-size="11">Infrastructure</text>
      <text x="938" y="382" fill="#E6E8EC" font-family="Segoe UI, system-ui, -apple-system, sans-serif" font-size="11" font-weight="700" text-anchor="end">2</text>
      <rect x="814" y="394" width="10" height="10" fill="#FF1430"/>
      <text x="830" y="404" fill="#9AA0A8" font-family="Segoe UI, system-ui, -apple-system, sans-serif" font-size="11">Identity</text>
      <text x="938" y="404" fill="#E6E8EC" font-family="Segoe UI, system-ui, -apple-system, sans-serif" font-size="11" font-weight="700" text-anchor="end">1</text>
      <rect x="814" y="416" width="10" height="10" fill="#E8FF3B"/>
      <text x="830" y="426" fill="#9AA0A8" font-family="Segoe UI, system-ui, -apple-system, sans-serif" font-size="11">Capacity</text>
      <text x="938" y="426" fill="#E6E8EC" font-family="Segoe UI, system-ui, -apple-system, sans-serif" font-size="11" font-weight="700" text-anchor="end">1</text>
      <rect x="814" y="438" width="10" height="10" fill="#7FA8FF"/>
      <text x="830" y="448" fill="#9AA0A8" font-family="Segoe UI, system-ui, -apple-system, sans-serif" font-size="11">Economics</text>
      <text x="938" y="448" fill="#E6E8EC" font-family="Segoe UI, system-ui, -apple-system, sans-serif" font-size="11" font-weight="700" text-anchor="end">1</text>

  <path d="M 82 408 L 590 408 L 600 418 L 600 594 L 590 604 L 82 604 L 72 594 L 72 418 Z" fill="#111113" stroke="rgba(230, 232, 236, 0.10)"/>
  <text x="88" y="432" fill="#9AA0A8" font-family="Segoe UI, system-ui, -apple-system, sans-serif" font-size="12" font-weight="700">Network coverage</text>
  
      <circle cx="154" cy="488" r="22" fill="#111113" stroke="#3A9BFF" stroke-width="2"/>
      <text x="154" y="492" fill="#E6E8EC" font-family="Segoe UI, system-ui, -apple-system, sans-serif" font-size="11" font-weight="700" text-anchor="middle">1</text>
      <text x="154" y="524" fill="#9AA0A8" font-family="Segoe UI, system-ui, -apple-system, sans-serif" font-size="10" text-anchor="middle">Geodnet</text>
      <circle cx="270" cy="488" r="22" fill="#111113" stroke="#3A9BFF" stroke-width="2"/>
      <text x="270" y="492" fill="#E6E8EC" font-family="Segoe UI, system-ui, -apple-system, sans-serif" font-size="11" font-weight="700" text-anchor="middle">1</text>
      <text x="270" y="524" fill="#9AA0A8" font-family="Segoe UI, system-ui, -apple-system, sans-serif" font-size="10" text-anchor="middle">Helium IoT</text>
      <circle cx="386" cy="488" r="22" fill="#111113" stroke="#3A9BFF" stroke-width="2"/>
      <text x="386" y="492" fill="#E6E8EC" font-family="Segoe UI, system-ui, -apple-system, sans-serif" font-size="11" font-weight="700" text-anchor="middle">1</text>
      <text x="386" y="524" fill="#9AA0A8" font-family="Segoe UI, system-ui, -apple-system, sans-serif" font-size="10" text-anchor="middle">Helium Mobi…</text>
      <circle cx="502" cy="488" r="22" fill="#111113" stroke="#3A9BFF" stroke-width="2"/>
      <text x="502" y="492" fill="#E6E8EC" font-family="Segoe UI, system-ui, -apple-system, sans-serif" font-size="11" font-weight="700" text-anchor="middle">1</text>
      <text x="502" y="524" fill="#9AA0A8" font-family="Segoe UI, system-ui, -apple-system, sans-serif" font-size="10" text-anchor="middle">Hivemapper</text>
      <circle cx="154" cy="560" r="22" fill="#111113" stroke="#3A9BFF" stroke-width="2"/>
      <text x="154" y="564" fill="#E6E8EC" font-family="Segoe UI, system-ui, -apple-system, sans-serif" font-size="11" font-weight="700" text-anchor="middle">1</text>
      <text x="154" y="596" fill="#9AA0A8" font-family="Segoe UI, system-ui, -apple-system, sans-serif" font-size="10" text-anchor="middle">WeatherXM</text>

  <path d="M 634 408 L 1118 408 L 1128 418 L 1128 594 L 1118 604 L 634 604 L 624 594 L 624 418 Z" fill="#111113" stroke="rgba(230, 232, 236, 0.10)"/>
  <text x="640" y="432" fill="#9AA0A8" font-family="Segoe UI, system-ui, -apple-system, sans-serif" font-size="12" font-weight="700">Persistent signals</text>
  <text x="640" y="456" fill="#6A6C72" font-family="Segoe UI, system-ui, -apple-system, sans-serif" font-size="11">Longest-running observations in the last 30 days</text>
  
    <rect x="640" y="468" width="472" height="26" fill="#111113" stroke="rgba(230, 232, 236, 0.10)"/>
    <rect x="640" y="468" width="4" height="26" fill="#FF1430"/>
    <text x="656" y="486" fill="#E6E8EC" font-family="Segoe UI, system-ui, -apple-system, sans-serif" font-size="12" font-weight="600">Geodnet</text>
    <text x="820" y="486" fill="#9AA0A8" font-family="Segoe UI, system-ui, -apple-system, sans-serif" font-size="12">dup groups</text>
    <text x="1096" y="486" fill="#E8FF3B" font-family="Segoe UI, system-ui, -apple-system, sans-serif" font-size="12" font-weight="700" text-anchor="end">22d</text>
    <rect x="640" y="500" width="472" height="26" fill="#111113" stroke="rgba(230, 232, 236, 0.10)"/>
    <rect x="640" y="500" width="4" height="26" fill="#FF1430"/>
    <text x="656" y="518" fill="#E6E8EC" font-family="Segoe UI, system-ui, -apple-system, sans-serif" font-size="12" font-weight="600">Hivemapper</text>
    <text x="820" y="518" fill="#9AA0A8" font-family="Segoe UI, system-ui, -apple-system, sans-serif" font-size="12">top 20%</text>
    <text x="1096" y="518" fill="#E8FF3B" font-family="Segoe UI, system-ui, -apple-system, sans-serif" font-size="12" font-weight="700" text-anchor="end">22d</text>
    <rect x="640" y="532" width="472" height="26" fill="#111113" stroke="rgba(230, 232, 236, 0.10)"/>
    <rect x="640" y="532" width="4" height="26" fill="#FF1430"/>
    <text x="656" y="550" fill="#E6E8EC" font-family="Segoe UI, system-ui, -apple-system, sans-serif" font-size="12" font-weight="600">WeatherXM</text>
    <text x="820" y="550" fill="#9AA0A8" font-family="Segoe UI, system-ui, -apple-system, sans-serif" font-size="12">hot cells</text>
    <text x="1096" y="550" fill="#E8FF3B" font-family="Segoe UI, system-ui, -apple-system, sans-serif" font-size="12" font-weight="700" text-anchor="end">22d</text>
    <rect x="640" y="564" width="472" height="26" fill="#111113" stroke="rgba(230, 232, 236, 0.10)"/>
    <rect x="640" y="564" width="4" height="26" fill="#FF1430"/>
    <text x="656" y="582" fill="#E6E8EC" font-family="Segoe UI, system-ui, -apple-system, sans-serif" font-size="12" font-weight="600">Geodnet</text>
    <text x="820" y="582" fill="#9AA0A8" font-family="Segoe UI, system-ui, -apple-system, sans-serif" font-size="12">entities</text>
    <text x="1096" y="582" fill="#E8FF3B" font-family="Segoe UI, system-ui, -apple-system, sans-serif" font-size="12" font-weight="700" text-anchor="end">15d</text>
    <rect x="640" y="596" width="472" height="26" fill="#111113" stroke="rgba(230, 232, 236, 0.10)"/>
    <rect x="640" y="596" width="4" height="26" fill="#FF1430"/>
    <text x="656" y="614" fill="#E6E8EC" font-family="Segoe UI, system-ui, -apple-system, sans-serif" font-size="12" font-weight="600">Helium IoT</text>
    <text x="820" y="614" fill="#9AA0A8" font-family="Segoe UI, system-ui, -apple-system, sans-serif" font-size="12">stacked sp…</text>
    <text x="1096" y="614" fill="#E8FF3B" font-family="Segoe UI, system-ui, -apple-system, sans-serif" font-size="12" font-weight="700" text-anchor="end">14d</text>

  <text x="1128" y="656" fill="#E6E8EC" font-family="Segoe UI, system-ui, -apple-system, sans-serif" font-size="18" font-weight="700" text-anchor="end">getkinetik.app/site</text>
</svg>