<?xml version="1.0" encoding="UTF-8"?>
<svg xmlns="http://www.w3.org/2000/svg" width="1200" height="675" viewBox="0 0 1200 675">
  <defs>
    <linearGradient id="bg" x1="0" y1="0" x2="1" y2="1">
      <stop offset="0%" stop-color="#111113"/>
      <stop offset="100%" stop-color="#0A0A0A"/>
    </linearGradient>
    <linearGradient id="topline" x1="0" y1="0" x2="1" y2="0">
      <stop offset="0%" stop-color="#E8FF3B"/>
      <stop offset="60%" stop-color="#007BFF"/>
      <stop offset="100%" stop-color="#FF1430"/>
    </linearGradient>
  </defs>
  <rect width="1200" height="675" fill="url(#bg)"/>
  <rect x="0" y="0" width="1200" height="6" fill="#E8FF3B"/>
  
  <defs>
    <linearGradient id="monthBand" x1="0" y1="0" x2="1" y2="1">
      <stop offset="0%" stop-color="#2A2400"/>
      <stop offset="50%" stop-color="#1A1608"/>
      <stop offset="100%" stop-color="#0A0A0A"/>
    </linearGradient>
  </defs>
  <rect x="0" y="0" width="1200" height="132" fill="url(#monthBand)"/>
  <text x="600" y="52" fill="#E8FF3B" font-family="Segoe UI, system-ui, -apple-system, sans-serif" font-size="13" font-weight="700" letter-spacing="4" text-anchor="middle">GETKINETIK</text>
  <text x="600" y="92" fill="#E6E8EC" font-family="Segoe UI, system-ui, -apple-system, sans-serif" font-size="36" font-weight="700" text-anchor="middle">DePIN Ecosystem State</text>
  <text x="600" y="118" fill="#9AA0A8" font-family="Segoe UI, system-ui, -apple-system, sans-serif" font-size="16" text-anchor="middle">June 2026</text>

  <text x="88" y="168" fill="#9AA0A8" font-family="Segoe UI, system-ui, -apple-system, sans-serif" font-size="13">10 signals · 4 active networks · public audit composition</text>

  <path d="M 82 196 L 590 196 L 600 206 L 600 382 L 590 392 L 82 392 L 72 382 L 72 206 Z" fill="#111113" stroke="rgba(230, 232, 236, 0.10)"/>
  <text x="88" y="220" fill="#9AA0A8" font-family="Segoe UI, system-ui, -apple-system, sans-serif" font-size="12" font-weight="700">Ecosystem composition</text>
  
    <rect x="88" y="318" width="480" height="22" fill="#0A0A0A" stroke="rgba(230, 232, 236, 0.10)"/>
    <rect x="88" y="318" width="192" height="22" fill="#FF1430"/><rect x="280" y="318" width="192" height="22" fill="#007BFF"/><rect x="472" y="318" width="48" height="22" fill="#E8FF3B"/><rect x="520" y="318" width="48" height="22" fill="#7FA8FF"/>
    <text x="88" y="358" fill="#9AA0A8" font-family="Segoe UI, system-ui, -apple-system, sans-serif" font-size="11">10 signals across 4 sectors</text>
  
      <rect x="88" y="348" width="10" height="10" fill="#FF1430"/>
      <text x="106" y="358" fill="#9AA0A8" font-family="Segoe UI, system-ui, -apple-system, sans-serif" font-size="11">Registry &amp; identity integrity</text>
      <text x="540" y="358" fill="#E6E8EC" font-family="Segoe UI, system-ui, -apple-system, sans-serif" font-size="11" font-weight="700" text-anchor="end">4</text>
      <rect x="88" y="372" width="10" height="10" fill="#007BFF"/>
      <text x="106" y="382" fill="#9AA0A8" font-family="Segoe UI, system-ui, -apple-system, sans-serif" font-size="11">Network health &amp; capacity</text>
      <text x="540" y="382" fill="#E6E8EC" font-family="Segoe UI, system-ui, -apple-system, sans-serif" font-size="11" font-weight="700" text-anchor="end">4</text>
      <rect x="88" y="396" width="10" height="10" fill="#E8FF3B"/>
      <text x="106" y="406" fill="#9AA0A8" font-family="Segoe UI, system-ui, -apple-system, sans-serif" font-size="11">Coverage growth</text>
      <text x="540" y="406" fill="#E6E8EC" font-family="Segoe UI, system-ui, -apple-system, sans-serif" font-size="11" font-weight="700" text-anchor="end">1</text>
      <rect x="88" y="420" width="10" height="10" fill="#7FA8FF"/>
      <text x="106" y="430" fill="#9AA0A8" font-family="Segoe UI, system-ui, -apple-system, sans-serif" font-size="11">Token economics</text>
      <text x="540" y="430" fill="#E6E8EC" font-family="Segoe UI, system-ui, -apple-system, sans-serif" font-size="11" font-weight="700" text-anchor="end">1</text>

  <path d="M 634 196 L 1118 196 L 1128 206 L 1128 382 L 1118 392 L 634 392 L 624 382 L 624 206 Z" fill="#111113" stroke="rgba(230, 232, 236, 0.10)"/>
  <text x="640" y="220" fill="#9AA0A8" font-family="Segoe UI, system-ui, -apple-system, sans-serif" font-size="12" font-weight="700">Signal category distribution</text>
  <circle cx="876" cy="292" r="62" fill="#0A0A0A" stroke="rgba(230, 232, 236, 0.10)"/><path d="M 876 292 L 876 230 A 62 62 0 0 1 929.6935750346352 323 Z" fill="#FF1430" opacity="0.92"/><path d="M 876 292 L 929.6935750346352 323 A 62 62 0 0 1 822.3064249653648 323 Z" fill="#007BFF" opacity="0.92"/><path d="M 876 292 L 822.3064249653648 323 A 62 62 0 0 1 876 230 Z" fill="#E8FF3B" opacity="0.92"/><circle cx="876" cy="292" r="32" fill="#111113"/><text x="876" y="288" fill="#E6E8EC" font-family="Segoe UI, system-ui, -apple-system, sans-serif" font-size="20" font-weight="700" text-anchor="middle">6</text><text x="876" y="306" fill="#9AA0A8" font-family="Segoe UI, system-ui, -apple-system, sans-serif" font-size="10" text-anchor="middle">signals</text>
      <rect x="814" y="372" width="10" height="10" fill="#FF1430"/>
      <text x="830" y="382" fill="#9AA0A8" font-family="Segoe UI, system-ui, -apple-system, sans-serif" font-size="11">Identity</text>
      <text x="938" y="382" fill="#E6E8EC" font-family="Segoe UI, system-ui, -apple-system, sans-serif" font-size="11" font-weight="700" text-anchor="end">2</text>
      <rect x="814" y="394" width="10" height="10" fill="#007BFF"/>
      <text x="830" y="404" fill="#9AA0A8" font-family="Segoe UI, system-ui, -apple-system, sans-serif" font-size="11">Infrastructure</text>
      <text x="938" y="404" fill="#E6E8EC" font-family="Segoe UI, system-ui, -apple-system, sans-serif" font-size="11" font-weight="700" text-anchor="end">2</text>
      <rect x="814" y="416" width="10" height="10" fill="#E8FF3B"/>
      <text x="830" y="426" fill="#9AA0A8" font-family="Segoe UI, system-ui, -apple-system, sans-serif" font-size="11">Capacity</text>
      <text x="938" y="426" fill="#E6E8EC" font-family="Segoe UI, system-ui, -apple-system, sans-serif" font-size="11" font-weight="700" text-anchor="end">2</text>

  <path d="M 82 408 L 590 408 L 600 418 L 600 594 L 590 604 L 82 604 L 72 594 L 72 418 Z" fill="#111113" stroke="rgba(230, 232, 236, 0.10)"/>
  <text x="88" y="432" fill="#9AA0A8" font-family="Segoe UI, system-ui, -apple-system, sans-serif" font-size="12" font-weight="700">Network coverage</text>
  
      <circle cx="212" cy="488" r="22" fill="#111113" stroke="#FF1430" stroke-width="2"/>
      <text x="212" y="492" fill="#E6E8EC" font-family="Segoe UI, system-ui, -apple-system, sans-serif" font-size="11" font-weight="700" text-anchor="middle">3</text>
      <text x="212" y="524" fill="#9AA0A8" font-family="Segoe UI, system-ui, -apple-system, sans-serif" font-size="10" text-anchor="middle">Geodnet</text>
      <circle cx="444" cy="488" r="22" fill="#111113" stroke="#6A6C72" stroke-width="2"/>
      <text x="444" y="492" fill="#E6E8EC" font-family="Segoe UI, system-ui, -apple-system, sans-serif" font-size="11" font-weight="700" text-anchor="middle">3</text>
      <text x="444" y="524" fill="#9AA0A8" font-family="Segoe UI, system-ui, -apple-system, sans-serif" font-size="10" text-anchor="middle">WeatherXM</text>

  <path d="M 634 408 L 1118 408 L 1128 418 L 1128 594 L 1118 604 L 634 604 L 624 594 L 624 418 Z" fill="#111113" stroke="rgba(230, 232, 236, 0.10)"/>
  <text x="640" y="432" fill="#9AA0A8" font-family="Segoe UI, system-ui, -apple-system, sans-serif" font-size="12" font-weight="700">Persistent signals</text>
  <text x="640" y="456" fill="#6A6C72" font-family="Segoe UI, system-ui, -apple-system, sans-serif" font-size="11">Longest-running observations in the last 30 days</text>
  
    <rect x="640" y="486" width="472" height="28" fill="#111113" stroke="rgba(230, 232, 236, 0.10)"/>
    <rect x="640" y="486" width="4" height="28" fill="#FF1430"/>
    <text x="656" y="505" fill="#E6E8EC" font-family="Segoe UI, system-ui, -apple-system, sans-serif" font-size="12" font-weight="600">Geodnet</text>
    <text x="820" y="505" fill="#9AA0A8" font-family="Segoe UI, system-ui, -apple-system, sans-serif" font-size="12">dup groups</text>
    <text x="1096" y="505" fill="#E8FF3B" font-family="Segoe UI, system-ui, -apple-system, sans-serif" font-size="12" font-weight="700" text-anchor="end">4d</text>
    <rect x="640" y="522" width="472" height="28" fill="#111113" stroke="rgba(230, 232, 236, 0.10)"/>
    <rect x="640" y="522" width="4" height="28" fill="#FF1430"/>
    <text x="656" y="541" fill="#E6E8EC" font-family="Segoe UI, system-ui, -apple-system, sans-serif" font-size="12" font-weight="600">Hivemapper</text>
    <text x="820" y="541" fill="#9AA0A8" font-family="Segoe UI, system-ui, -apple-system, sans-serif" font-size="12">top 20%</text>
    <text x="1096" y="541" fill="#E8FF3B" font-family="Segoe UI, system-ui, -apple-system, sans-serif" font-size="12" font-weight="700" text-anchor="end">4d</text>
    <rect x="640" y="558" width="472" height="28" fill="#111113" stroke="rgba(230, 232, 236, 0.10)"/>
    <rect x="640" y="558" width="4" height="28" fill="#FF1430"/>
    <text x="656" y="577" fill="#E6E8EC" font-family="Segoe UI, system-ui, -apple-system, sans-serif" font-size="12" font-weight="600">WeatherXM</text>
    <text x="820" y="577" fill="#9AA0A8" font-family="Segoe UI, system-ui, -apple-system, sans-serif" font-size="12">hot cells</text>
    <text x="1096" y="577" fill="#E8FF3B" font-family="Segoe UI, system-ui, -apple-system, sans-serif" font-size="12" font-weight="700" text-anchor="end">4d</text>

  <path d="M 78 620 L 1122 620 L 1128 626 L 1128 650 L 1122 656 L 78 656 L 72 650 L 72 626 Z" fill="#111113" stroke="rgba(230, 232, 236, 0.10)"/>
  <text x="88" y="642" fill="#9AA0A8" font-family="Segoe UI, system-ui, -apple-system, sans-serif" font-size="12" font-weight="700">Longest-running observations</text>
  <text x="88" y="548" fill="#E6E8EC" font-family="Segoe UI, system-ui, -apple-system, sans-serif" font-size="12">Geodnet · dup groups · 4 days observed</text><text x="88" y="572" fill="#E6E8EC" font-family="Segoe UI, system-ui, -apple-system, sans-serif" font-size="12">Hivemapper · top 20% · 4 days observed</text><text x="88" y="596" fill="#E6E8EC" font-family="Segoe UI, system-ui, -apple-system, sans-serif" font-size="12">WeatherXM · hot cells · 4 days observed</text><text x="88" y="620" fill="#E6E8EC" font-family="Segoe UI, system-ui, -apple-system, sans-serif" font-size="12">Dawn · dup groups · 3 days observed</text><text x="88" y="644" fill="#E6E8EC" font-family="Segoe UI, system-ui, -apple-system, sans-serif" font-size="12">Dawn · entities · 3 days observed</text>

  <text x="1128" y="656" fill="#E6E8EC" font-family="Segoe UI, system-ui, -apple-system, sans-serif" font-size="18" font-weight="700" text-anchor="end">getkinetik.app/site</text>
</svg>