<?xml version="1.0" encoding="UTF-8"?>
<svg xmlns="http://www.w3.org/2000/svg" width="1200" height="675" viewBox="0 0 1200 675">
  <defs>
    <linearGradient id="bg" x1="0" y1="0" x2="1" y2="1">
      <stop offset="0%" stop-color="#111113"/>
      <stop offset="100%" stop-color="#0A0A0A"/>
    </linearGradient>
    <linearGradient id="topline" x1="0" y1="0" x2="1" y2="0">
      <stop offset="0%" stop-color="#007BFF"/>
      <stop offset="60%" stop-color="#3A9BFF"/>
      <stop offset="100%" stop-color="#6A6C72"/>
    </linearGradient>
  </defs>
  <rect width="1200" height="675" fill="url(#bg)"/>
  <rect x="0" y="0" width="3" height="675" fill="#007BFF"/>
  
  <rect x="0" y="0" width="1200" height="6" fill="#007BFF"/>
  <rect x="0" y="6" width="1200" height="2" fill="#6A6C72" opacity="0.6"/>

  <text x="56" y="48" fill="#3A9BFF" font-family="Segoe UI, system-ui, -apple-system, sans-serif" font-size="12" font-weight="700" letter-spacing="3">GETKINETIK · WEEKLY</text>
  <text x="56" y="88" fill="#E6E8EC" font-family="Segoe UI, system-ui, -apple-system, sans-serif" font-size="38" font-weight="700">Weekly Signal Review</text>
  <text x="56" y="112" fill="#9AA0A8" font-family="Segoe UI, system-ui, -apple-system, sans-serif" font-size="14">What kept showing up · neutral observation across networks</text>
  <text x="56" y="134" fill="#9AA0A8" font-family="Segoe UI, system-ui, -apple-system, sans-serif" font-size="15">Week 24 · rolling 7-day window</text>
  <text x="1144" y="88" fill="#E6E8EC" font-family="Segoe UI, system-ui, -apple-system, sans-serif" font-size="34" font-weight="700" text-anchor="end">1</text>
  <text x="1144" y="118" fill="#9AA0A8" font-family="Segoe UI, system-ui, -apple-system, sans-serif" font-size="13" text-anchor="end">networks under review</text>

  <path d="M 66 168 L 686 168 L 696 178 L 696 498 L 686 508 L 66 508 L 56 498 L 56 178 Z" fill="#111113" stroke="rgba(230, 232, 236, 0.10)"/>
  <text x="76" y="196" fill="#9AA0A8" font-family="Segoe UI, system-ui, -apple-system, sans-serif" font-size="12" font-weight="700">Most persistent changes</text>
  
      
      <rect x="84" y="222" width="3" height="32" fill="#3A9BFF" opacity="0.85"/>
      <text x="100" y="246" fill="#E6E8EC" font-family="Segoe UI, system-ui, -apple-system, sans-serif" font-size="16" font-weight="600">Geodnet</text>
      <text x="664" y="246" fill="#E8FF3B" font-family="Segoe UI, system-ui, -apple-system, sans-serif" font-size="14" font-weight="600" text-anchor="end">+0.0 pp flagged</text>
  <text x="76" y="456" fill="#9AA0A8" font-family="Segoe UI, system-ui, -apple-system, sans-serif" font-size="12" font-weight="700">Field notes</text>
  <text x="80" y="548" fill="#9AA0A8" font-family="Segoe UI, system-ui, -apple-system, sans-serif" font-size="12">— Geodnet: repeated exactDupGroups observation</text><text x="80" y="576" fill="#9AA0A8" font-family="Segoe UI, system-ui, -apple-system, sans-serif" font-size="12">— Geodnet: repeated flaggedPct observation</text>

  <path d="M 738 168 L 1134 168 L 1144 178 L 1144 498 L 1134 508 L 738 508 L 728 498 L 728 178 Z" fill="#111113" stroke="rgba(230, 232, 236, 0.10)"/>
  <text x="744" y="192" fill="#9AA0A8" font-family="Segoe UI, system-ui, -apple-system, sans-serif" font-size="12" font-weight="700">Emerging patterns</text>
  
      <text x="752" y="234" fill="#E6E8EC" font-family="Segoe UI, system-ui, -apple-system, sans-serif" font-size="14">Identity signals</text>
      <text x="1120" y="234" fill="#E8FF3B" font-family="Segoe UI, system-ui, -apple-system, sans-serif" font-size="20" font-weight="700" text-anchor="end">↑</text>

  <path d="M 738 528 L 1134 528 L 1144 538 L 1144 618 L 1134 628 L 738 628 L 728 618 L 728 538 Z" fill="#111113" stroke="rgba(230, 232, 236, 0.10)"/>
  <text x="744" y="552" fill="#9AA0A8" font-family="Segoe UI, system-ui, -apple-system, sans-serif" font-size="12" font-weight="700">Review posture</text>
  <text x="752" y="578" fill="#9AA0A8" font-family="Segoe UI, system-ui, -apple-system, sans-serif" font-size="12">Observing networks — not ranking them.</text>
  <text x="752" y="600" fill="#9AA0A8" font-family="Segoe UI, system-ui, -apple-system, sans-serif" font-size="12">Public data · reproducible scans · neutral reads.</text>

  <text x="1128" y="648" fill="#E6E8EC" font-family="Segoe UI, system-ui, -apple-system, sans-serif" font-size="18" font-weight="700" text-anchor="end">getkinetik.app/site</text>
</svg>